<?xml version="1.0" encoding="utf-8"?>
<!-- Generator: Adobe Illustrator 24.0.1, SVG Export Plug-In . SVG Version: 6.00 Build 0)  -->
<svg version="1.1" id="Layer_1" xmlns="http://www.w3.org/2000/svg" xmlns:xlink="http://www.w3.org/1999/xlink" x="0px" y="0px"
	 viewBox="0 0 2600 1080" style="enable-background:new 0 0 2600 1080;" xml:space="preserve">
<style type="text/css">
	.st0{fill:#F76902;}
	.st1{fill:#FFFFFF;}
	.st2{fill:#FF6700;stroke:#FFFFFF;stroke-width:37.2837;stroke-linecap:round;stroke-linejoin:round;stroke-miterlimit:10;}
	.st3{fill:none;stroke:#FFFFFF;stroke-width:37.2837;stroke-linecap:round;stroke-linejoin:round;stroke-miterlimit:10;}
	.st4{font-family:'NHaasGroteskDSPro-75Bd';}
	.st5{font-size:322.5559px;}
</style>
<g>
	<g>
		<path class="st0" d="M891,653.3l-11-34.7c-35.2-4.4-61.1-25.4-61.1-51.4c0-29.3,33-52.3,75-52.3c32.6,0,59.7,13.8,70.3,33.6h50.8
			l-52.4-92.8H488.4l-96.3,197.5H891L891,653.3L891,653.3z"/>
		<path class="st0" d="M446.9,455.8h-30.6c-48.1,0-92.3,25.5-115.5,66.7l-73.9,130.9h123.8L446.9,455.8z"/>
		<path class="st0" d="M931.7,567.1c0-3.8-13-15-37.8-15s-37.8,11.1-37.8,15c0,3.8,12.9,14.9,37.6,15c0.1,0,0.1,0,0.2,0
			C918.7,582.1,931.7,571,931.7,567.1z"/>
		<polygon class="st0" points="205.8,690.5 122.4,838.4 260.4,838.4 332.5,690.5 		"/>
		<path class="st0" d="M918.5,616.6l11.6,36.6h143.8c-1-2.1-2.1-4.2-3.3-6.2l-34.6-61.2h-71.8C956.4,600.4,939.7,611.6,918.5,616.6z
			"/>
		<path class="st0" d="M1062.6,784.1c19.3-26.6,28.3-60,23.2-93.6H965L1062.6,784.1z"/>
		<path class="st0" d="M373.9,690.5l-72,147.8H955c31.6,0,59.6-10.4,81.6-27.4L911.1,690.5H373.9z"/>
		<path class="st1" d="M888.3,583c1.8-0.6,3.7-0.9,5.5-0.9c-24.7,0-37.6-11.1-37.6-15c0-3.8,13-15,37.8-15s37.8,11.1,37.8,15
			c0-10.3,8.3-18.6,18.6-18.6h13.8c-10.6-19.8-37.7-33.6-70.3-33.6c-42.1,0-75,23-75,52.3c0,26,25.9,47,61.1,51.4l-3.8-12.1
			C873,596.6,878.5,586.1,888.3,583z"/>
		<path class="st1" d="M931.7,567.1c0,3.8-13,15-37.7,15c7.9,0,15.2,5.1,17.7,13l6.8,21.5c21.2-5,37.9-16.3,45.7-30.8h-13.9
			C940,585.8,931.7,577.4,931.7,567.1z"/>
		<polygon class="st1" points="332.5,690.5 260.4,838.4 301.9,838.4 373.9,690.5 		"/>
		<polygon class="st1" points="392.1,653.3 488.4,455.8 446.9,455.8 350.6,653.3 		"/>
		<polygon class="st1" points="350.6,653.3 226.9,653.3 205.8,690.5 332.5,690.5 		"/>
		<path class="st1" d="M897.7,674.5l-6.7-21.3H392.1l-18.2,37.3h537.2l-8.5-8.2C900.4,680.2,898.7,677.5,897.7,674.5z"/>
		<path class="st1" d="M930.1,653.3l1.7,5.5l33.1,31.8h120.8c-1.9-12.5-5.8-25.1-11.9-37.3H930.1z"/>
		<polygon class="st1" points="350.6,653.3 332.5,690.5 373.9,690.5 392.1,653.3 		"/>
		<path class="st1" d="M893.9,619.4c-4.8,0-9.4-0.3-13.9-0.9l11,34.7h39.1l-11.6-36.6C910.8,618.4,902.6,619.4,893.9,619.4z"/>
		<path class="st1" d="M893.8,582.1L893.8,582.1L893.8,582.1C893.9,582.1,893.8,582.1,893.8,582.1z"/>
		<path class="st1" d="M911.1,690.5L1036.6,811c10-7.7,18.7-16.7,25.9-26.8l-97.6-93.6L911.1,690.5L911.1,690.5z"/>
		<path class="st1" d="M918.5,616.6l-6.8-21.5c-2.5-7.9-9.8-13-17.7-13l0,0h-0.1c-1.8,0-3.7,0.3-5.5,0.9
			c-9.8,3.1-15.3,13.6-12.1,23.4l3.8,12.1c4.5,0.6,9.2,0.9,13.9,0.9C902.6,619.4,910.8,618.4,918.5,616.6z"/>
		<path class="st1" d="M897.7,674.5c0.9,3,2.6,5.7,4.9,7.8l8.5,8.2H965l-33.1-31.8l-1.7-5.5h-39.1L897.7,674.5z"/>
		<path class="st1" d="M969,567.1c0,6.6-1.7,12.9-4.8,18.6h71.8l-21-37.3h-50.8C967.3,554.3,969,560.5,969,567.1z"/>
		<path class="st1" d="M931.7,567.1c0,10.3,8.3,18.6,18.6,18.6h13.9c3.1-5.8,4.8-12,4.8-18.6s-1.7-12.9-4.8-18.6h-13.9
			C940,548.5,931.7,556.8,931.7,567.1z"/>
	</g>
	<g>
		<path class="st2" d="M650.5,668.9c0,0-192.1-141.7-192.1-319.9c0-126.6,86-214.3,192.1-214.3S842.6,222.4,842.6,349
			C842.6,527.2,650.5,668.9,650.5,668.9z"/>
		<path class="st3" d="M650.5,668.9c0,0-192.1-141.7-192.1-319.9c0-126.6,86-214.3,192.1-214.3S842.6,222.4,842.6,349
			C842.6,527.2,650.5,668.9,650.5,668.9z"/>
		<g>
			<circle class="st1" cx="652" cy="326.3" r="97.4"/>
		</g>
	</g>
</g>
<text transform="matrix(1 0 0 1 1206.0718 653.3503)" class="st4 st5">SG Atlas</text>
</svg>
